<?xml version="1.0" encoding="UTF-8" standalone="no"?>
<!-- Created with Inkscape (http://www.inkscape.org/) -->

<svg
   xmlns:dc="http://purl.org/dc/elements/1.1/"
   xmlns:cc="http://creativecommons.org/ns#"
   xmlns:rdf="http://www.w3.org/1999/02/22-rdf-syntax-ns#"
   xmlns:svg="http://www.w3.org/2000/svg"
   xmlns="http://www.w3.org/2000/svg"
   xmlns:sodipodi="http://sodipodi.sourceforge.net/DTD/sodipodi-0.dtd"
   xmlns:inkscape="http://www.inkscape.org/namespaces/inkscape"
   version="1.0"
   width="301.67786"
   height="105.78022"
   id="svg1903"
   inkscape:version="0.92.4 5da689c313, 2019-01-14"
   sodipodi:docname="LogoVerticalMedium.svg">
  <metadata
     id="metadata24">
    <rdf:RDF>
      <cc:Work
         rdf:about="">
        <dc:format>image/svg+xml</dc:format>
        <dc:type
           rdf:resource="http://purl.org/dc/dcmitype/StillImage" />
        <dc:title></dc:title>
      </cc:Work>
    </rdf:RDF>
  </metadata>
  <sodipodi:namedview
     pagecolor="#ffffff"
     bordercolor="#666666"
     borderopacity="1"
     objecttolerance="10"
     gridtolerance="10"
     guidetolerance="10"
     inkscape:pageopacity="0"
     inkscape:pageshadow="2"
     inkscape:window-width="818"
     inkscape:window-height="738"
     id="namedview22"
     showgrid="false"
     inkscape:zoom="2.21"
     inkscape:cx="108.57799"
     inkscape:cy="35.221746"
     inkscape:window-x="460"
     inkscape:window-y="26"
     inkscape:window-maximized="0"
     inkscape:current-layer="svg1903"
     fit-margin-top="0"
     fit-margin-left="0"
     fit-margin-right="0"
     fit-margin-bottom="0" />
  <defs
     id="defs1905">
    <inkscape:perspective
       sodipodi:type="inkscape:persp3d"
       inkscape:vp_x="0 : 244.11613 : 1"
       inkscape:vp_y="0 : 1000 : 0"
       inkscape:vp_z="401.74014 : 244.11613 : 1"
       inkscape:persp3d-origin="200.87007 : 162.74409 : 1"
       id="perspective26" />
    <linearGradient
       gradientTransform="matrix(66.392048,347.72174,-347.72174,66.392048,-15.867806,-241.94131)"
       gradientUnits="userSpaceOnUse"
       y2="0"
       x2="1"
       y1="0"
       x1="0"
       id="_Linear1">
      <stop
         id="stop4142"
         style="stop-color:#fff;stop-opacity:1"
         offset="0%" />
      <stop
         id="stop4144"
         style="stop-color:#fff;stop-opacity:1"
         offset="34%" />
      <stop
         id="stop4146"
         style="stop-color:#bebdf3;stop-opacity:1"
         offset="51%" />
      <stop
         id="stop4148"
         style="stop-color:#867fb7;stop-opacity:1"
         offset="75%" />
      <stop
         id="stop4150"
         style="stop-color:#9f99c7;stop-opacity:1"
         offset="87%" />
      <stop
         id="stop4152"
         style="stop-color:#524c76;stop-opacity:1"
         offset="100%" />
    </linearGradient>
    <linearGradient
       gradientTransform="matrix(-73.9103,-331.394,331.394,-73.9103,306.28,306.967)"
       gradientUnits="userSpaceOnUse"
       y2="0"
       x2="1"
       y1="0"
       x1="0"
       id="_Linear2">
      <stop
         id="stop4155"
         style="stop-color:#fff;stop-opacity:1"
         offset="0%" />
      <stop
         id="stop4157"
         style="stop-color:#fff;stop-opacity:1"
         offset="34%" />
      <stop
         id="stop4159"
         style="stop-color:#bebbdb;stop-opacity:1"
         offset="51%" />
      <stop
         id="stop4161"
         style="stop-color:#928bbe;stop-opacity:1"
         offset="75%" />
      <stop
         id="stop4163"
         style="stop-color:#9f99c7;stop-opacity:1"
         offset="87%" />
      <stop
         id="stop4165"
         style="stop-color:#524c76;stop-opacity:1"
         offset="100%" />
    </linearGradient>
    <radialGradient
       gradientTransform="matrix(65.7758,0,0,50.4149,219.576,105.5)"
       gradientUnits="userSpaceOnUse"
       r="1"
       cy="0"
       cx="0"
       id="_Radial3">
      <stop
         id="stop4168"
         style="stop-color:#fff;stop-opacity:1"
         offset="0%" />
      <stop
         id="stop4170"
         style="stop-color:#fff;stop-opacity:1"
         offset="34%" />
      <stop
         id="stop4172"
         style="stop-color:#bebbdb;stop-opacity:1"
         offset="51%" />
      <stop
         id="stop4174"
         style="stop-color:#928bbe;stop-opacity:1"
         offset="75%" />
      <stop
         id="stop4176"
         style="stop-color:#9f99c7;stop-opacity:1"
         offset="87%" />
      <stop
         id="stop4178"
         style="stop-color:#524c76;stop-opacity:1"
         offset="100%" />
    </radialGradient>
    <radialGradient
       gradientTransform="matrix(-2.4466093,155.23956,-132.39908,-2.0846075,1.6766152,27.87237)"
       gradientUnits="userSpaceOnUse"
       r="1"
       cy="0"
       cx="0"
       id="_Radial4">
      <stop
         id="stop4181"
         style="stop-color:#fff;stop-opacity:1"
         offset="0%" />
      <stop
         id="stop4183"
         style="stop-color:#fff;stop-opacity:1"
         offset="34%" />
      <stop
         id="stop4185"
         style="stop-color:#bebbdb;stop-opacity:1"
         offset="51%" />
      <stop
         id="stop4187"
         style="stop-color:#928bbe;stop-opacity:1"
         offset="75%" />
      <stop
         id="stop4189"
         style="stop-color:#9f99c7;stop-opacity:1"
         offset="87%" />
      <stop
         id="stop4191"
         style="stop-color:#524c76;stop-opacity:1"
         offset="100%" />
    </radialGradient>
  </defs>
  <g
     id="g259">
    <g
       transform="matrix(0.89446827,0,0,0.89446827,108.43043,0)"
       style="fill:#000000;fill-opacity:1;fill-rule:nonzero;stroke:none"
       id="g3773">
      <path
         d="M 86.068,0 C 61.466,0 56.851,35.041 70.691,35.041 84.529,35.041 110.671,0 86.068,0 Z"
         style="fill:#000000;fill-opacity:1"
         id="path3775"
         inkscape:connector-curvature="0" />
      <path
         d="M 45.217,30.699 C 52.586,31.149 60.671,2.577 46.821,4.374 32.976,6.171 37.845,30.249 45.217,30.699 Z"
         style="fill:#000000;fill-opacity:1"
         id="path3777"
         inkscape:connector-curvature="0" />
      <path
         d="M 11.445,48.453 C 16.686,46.146 12.12,23.581 3.208,29.735 -5.7,35.89 6.204,50.759 11.445,48.453 Z"
         style="fill:#000000;fill-opacity:1"
         id="path3779"
         inkscape:connector-curvature="0" />
      <path
         d="M 26.212,36.642 C 32.451,35.37 32.793,9.778 21.667,14.369 10.539,18.961 19.978,37.916 26.212,36.642 Z"
         style="fill:#000000;fill-opacity:1"
         id="path3781"
         inkscape:connector-curvature="0" />
      <path
         d="m 58.791,93.913 c 1.107,8.454 -6.202,12.629 -13.36,7.179 C 22.644,83.743 83.16,75.088 79.171,51.386 75.86,31.712 15.495,37.769 8.621,68.553 3.968,89.374 27.774,118.26 52.614,118.26 c 12.22,0 26.315,-11.034 28.952,-25.012 C 83.58,82.589 57.867,86.86 58.791,93.913 Z"
         style="fill:#000000;fill-opacity:1"
         id="path3783"
         inkscape:connector-curvature="0" />
    </g>
    <path
       style="clip-rule:evenodd;fill:url(#_Linear1);fill-rule:evenodd;stroke-width:0.27132905;stroke-linejoin:round;stroke-miterlimit:1.41420996"
       d="M 0.01119744,84.350326 C 0.02259326,79.888048 3.8160447,73.658062 9.2062676,67.997867 12.808161,64.21554 16.46649,60.895286 24.441394,54.09578 18.925003,51.068833 10.34585,47.417015 6.0409429,42.634298 4.4482414,40.86469 1.5613003,36.855532 2.1213235,31.498954 3.2625334,20.58203 16.737277,4.0141353 35.890666,0.51127724 42.263642,-0.65408103 49.580573,0.18731035 55.602721,2.8946316 74.495092,11.388316 97.599574,32.489305 100.44229,42.792483 c 1.00066,3.626584 0.80829,9.40725 -0.916551,12.628739 -2.138073,3.99315 -9.539115,12.103175 -19.664844,20.471777 -15.887944,13.130698 -38.151849,27.230311 -54.77618,29.602811 -5.371501,0.76678 -10.859674,-0.0328 -14.710918,-2.20617 C 4.348121,99.889612 2.3478832,95.350277 1.6445983,93.989562 -0.22513016,90.371389 0.00712751,85.787827 0.01119744,84.350326 Z M 44.725954,34.215229 c 0.205124,-2.530143 10.126542,-0.01112 9.499501,1.992641 -0.661229,2.113653 -9.734744,0.910037 -9.499501,-1.992641 z"
       id="path2973"
       inkscape:connector-curvature="0" />
    <g
       transform="matrix(0.27132905,0,0,0.27132905,-17.29634,-5.1304677)"
       id="mid"
       style="clip-rule:evenodd;fill-rule:evenodd;stroke-linejoin:round;stroke-miterlimit:1.41420996">
      <path
         style="fill:url(#_Linear2)"
         d="m 173.616,202.874 c -19.241,16.246 -32.035,27.2 -48.075,41.86 -38.626,35.303 -64.87,62.176 -51.34,98.909 15.609,42.374 49.824,40.226 89.947,32.349 C 267.569,355.595 437.574,224.898 428.909,176.623 421.898,137.562 326.918,59.902 270.682,32.267 253.114,23.633 232.866,19.168 212.558,20.124 135.231,23.773 74.844,94.176 77.929,132.321 c 3.001,37.11 96.794,69.446 95.687,70.553 z M 162.009,73.321 c -23.268,25.887 -8.391,75.974 30.196,103.274 45.151,31.944 118.268,37.728 132.818,13.093 27.14,-45.952 -2.492,-94.54 -46.726,-116.214 C 234.586,52.056 176.513,57.183 162.009,73.321 Z"
         id="path2975"
         inkscape:connector-curvature="0" />
      <path
         style="fill:url(#_Radial3)"
         d="m 241.361,175.509 c 32.665,4.54 60.822,-8.542 65.225,-40.798 3.353,-24.571 -34.251,-51.417 -56.86,-57.609 -18.88,-5.17 -59.869,1.479 -62.632,37.187 -2.873,37.121 35.22,58.572 54.267,61.22 z M 225.364,113.77 c -21.468,33.258 31.17,43.483 39.229,37.417 34.744,-26.148 -29.771,-52.069 -39.229,-37.417 z"
         id="path4976"
         inkscape:connector-curvature="0" />
    </g>
    <path
       style="clip-rule:evenodd;fill:url(#_Radial4);fill-rule:evenodd;stroke-width:0.27132905;stroke-linejoin:round;stroke-miterlimit:1.41420996"
       d="M 38.685626,2.7272216 C 28.382448,3.8130804 26.409072,5.1393368 17.075081,12.201218 13.946929,14.568021 8.189055,20.32698 6.713839,27.159046 6.1519165,29.761091 6.81613,32.007425 8.6901998,33.583032 14.690642,38.627854 24.733886,42.720581 32.973336,46.677101 35.386808,47.835947 33.78868,49.93712 29.897007,53.306212 20.076795,61.808037 6.7993076,72.15707 5.8724476,80.042706 5.4358791,83.758828 6.7078697,88.808262 11.218444,91.392129 16.487111,94.410664 27.424657,92.440544 34.727749,89.721013 45.400206,85.746856 59.419507,76.975873 70.549425,68.354122 82.123237,59.388867 92.884147,48.00173 93.416494,46.144482 94.070126,43.86369 94.005007,41.757091 92.743327,39.335208 90.762625,35.531989 88.114182,32.705826 85.270382,29.542672 77.640338,21.498579 69.567213,14.430458 59.908171,9.0139157 52.932843,5.1024361 46.795923,1.8725351 38.685626,2.7272216 Z M 53.820632,20.76165 c 7.443641,3.598637 15.087794,13.05147 -0.0662,18.49216 C 49.633486,40.733096 36.564922,35.620442 36.964861,28.642944 37.54849,18.335968 44.731927,16.367476 53.820636,20.76165 Z"
       id="path2977"
       inkscape:connector-curvature="0" />
    <path
       id="path6695"
       d="m 301.67784,52.888911 c 0,29.211405 -23.67766,52.891309 -52.88907,52.891309 -29.2114,0 -52.8913,-23.679904 -52.8913,-52.891309 0,-29.20954 23.68028,-52.88869497934 52.8913,-52.88869497934 29.21141,0 52.88907,23.67878197934 52.88907,52.88869497934 z"
       inkscape:connector-curvature="0"
       style="fill:#e95420;stroke-width:0.37317038" />
    <path
       id="path6697"
       d="m 221.33873,52.888911 c 0,3.755587 -3.04469,6.80103 -6.8029,6.80103 -3.75371,0 -6.79841,-3.04507 -6.79841,-6.80103 0,-3.754094 3.0447,-6.798791 6.79841,-6.798791 3.75821,0 6.8029,3.044697 6.8029,6.798791 z m 38.68808,33.065137 c 1.87816,3.24994 6.03528,4.3646 9.28783,2.489046 3.25218,-1.878167 4.36647,-6.037523 2.48868,-9.290076 -1.87781,-3.252181 -6.03529,-4.364228 -9.28748,-2.486435 -3.25255,1.878166 -4.36683,6.035284 -2.48903,9.287465 z M 271.80294,26.62667 c 1.87779,-3.252925 0.76574,-7.411164 -2.48867,-9.287091 -3.25032,-1.877794 -7.4093,-0.763507 -9.28784,2.487927 -1.8778,3.25218 -0.7635,7.410045 2.48905,9.287838 3.25255,1.877793 7.41191,0.763507 9.28746,-2.488674 z m -23.01417,6.871188 c 10.1327,0 18.44731,7.767168 19.31568,17.674843 l 9.84125,-0.15524 c -0.46721,-7.361532 -3.66043,-13.982322 -8.58106,-18.864137 -2.60472,1.004948 -5.62703,0.868368 -8.23437,-0.638121 -2.60921,-1.506489 -4.23885,-4.056735 -4.66985,-6.819689 -2.44577,-0.664244 -5.0184,-1.019875 -7.67165,-1.019875 -4.6538,0 -9.05273,1.088165 -12.95908,3.0238 l 4.78851,8.598965 c 2.48159,-1.153096 5.25313,-1.800546 8.17057,-1.800546 z m -19.39329,19.391053 c 0,-6.559216 3.25928,-12.359776 8.24595,-15.867206 l -5.05273,-8.446339 c -5.8528,3.908587 -10.21255,9.870731 -12.05191,16.860959 2.17671,1.752782 3.57124,4.439608 3.57124,7.452959 0,3.015217 -1.39491,5.702044 -3.57124,7.455198 1.83936,6.989855 6.19911,12.951999 12.05191,16.862824 l 5.05273,-8.446338 c -4.98667,-3.510041 -8.24595,-9.308362 -8.24595,-15.872057 z m 19.39329,19.394786 c -2.91707,0 -5.6886,-0.647079 -8.17057,-1.802414 l -4.78851,8.598966 c 3.90635,1.937127 8.3049,3.024173 12.95908,3.024173 2.65287,0 5.22588,-0.35302 7.67165,-1.018382 0.43063,-2.76482 2.06027,-5.315066 4.66985,-6.818943 2.60734,-1.506489 5.62965,-1.643443 8.23437,-0.638495 4.921,-4.884054 8.11385,-11.504843 8.58106,-18.866375 l -9.84125,-0.152628 c -0.86874,9.905063 -9.18298,17.674098 -19.31568,17.674098 z"
       inkscape:connector-curvature="0"
       style="fill:#ffffff;stroke-width:0.37317038" />
  </g>
</svg>
